<mxfile host="app.diagrams.net" modified="2021-03-03T20:52:47.269Z" agent="5.0 (X11)" etag="J9bXGKr6glcHOsWxDYhU" version="14.4.3" type="github">
  <diagram id="R2lEEEUBdFMjLlhIrx00" name="Page-1">
    <mxGraphModel dx="1350" dy="775" grid="1" gridSize="10" guides="1" tooltips="1" connect="1" arrows="1" fold="1" page="1" pageScale="1" pageWidth="850" pageHeight="1100" math="0" shadow="0" extFonts="Permanent Marker^https://fonts.googleapis.com/css?family=Permanent+Marker">
      <root>
        <mxCell id="0" />
        <mxCell id="1" parent="0" />
        <mxCell id="XgneUquvBvFpp_mGW6jf-1" value="&lt;div&gt;Board&lt;/div&gt;&lt;div&gt;&lt;br&gt;&lt;/div&gt;&lt;div&gt;&lt;br&gt;&lt;/div&gt;&lt;div&gt;-2 players&lt;/div&gt;&lt;div&gt;-nb of pieces off for each&lt;/div&gt;&lt;div&gt;-vector of cases(24)&lt;/div&gt;&lt;div&gt;-nb of pieces captures for each players&lt;/div&gt;&lt;div&gt;&lt;br&gt;&lt;/div&gt;&lt;div&gt;-move a piece&lt;/div&gt;&lt;div&gt;-get nb of pieces off for each players&lt;/div&gt;&lt;div&gt;-know if a captured piece is stucked &lt;br&gt;&lt;/div&gt;&lt;div&gt;-know if a piece is captured for a player&lt;br&gt;&lt;/div&gt;" style="whiteSpace=wrap;html=1;" vertex="1" parent="1">
          <mxGeometry x="20" y="280" width="280" height="200" as="geometry" />
        </mxCell>
        <mxCell id="XgneUquvBvFpp_mGW6jf-2" value="&lt;div&gt;Players&lt;/div&gt;&lt;div&gt;&lt;br&gt;&lt;/div&gt;&lt;div&gt;&lt;br&gt;&lt;/div&gt;-Mainly used to keep his name (could probably be a string)" style="whiteSpace=wrap;html=1;" vertex="1" parent="1">
          <mxGeometry x="360" y="325" width="130" height="110" as="geometry" />
        </mxCell>
        <mxCell id="XgneUquvBvFpp_mGW6jf-3" value="&lt;div&gt;Cases&lt;/div&gt;&lt;div&gt;&lt;br&gt;&lt;/div&gt;&lt;div&gt;- nb of pieces from each players in a case&lt;/div&gt;&lt;div&gt;&lt;br&gt;&lt;/div&gt;&lt;div&gt;-increment/decrement the nb of pieces&lt;/div&gt;" style="whiteSpace=wrap;html=1;" vertex="1" parent="1">
          <mxGeometry x="550" y="315" width="190" height="130" as="geometry" />
        </mxCell>
        <mxCell id="XgneUquvBvFpp_mGW6jf-4" value="&lt;div&gt;Comments:&lt;/div&gt;&lt;div&gt;&lt;br&gt;&lt;/div&gt;&lt;div&gt;Everything seems to work except for when getting a captured piece out which is a little buggy and would need a little of debugging.&lt;/div&gt;&lt;div&gt;&lt;br&gt;&lt;/div&gt;&lt;div&gt;We also change majors parts of our design towards the end and tought about changing it again at the end.&lt;br&gt;&lt;/div&gt;" style="whiteSpace=wrap;html=1;" vertex="1" parent="1">
          <mxGeometry x="55" y="530" width="210" height="170" as="geometry" />
        </mxCell>
      </root>
    </mxGraphModel>
  </diagram>
</mxfile>
